<svg width="125" height="125" viewBox="0 0 125 125" fill="none" xmlns="http://www.w3.org/2000/svg">
<g filter="url(#filter0_f_4_399)">
<circle cx="68.9079" cy="47.0658" r="20.0658" fill="#FFC701" fill-opacity="0.5"/>
</g>
<circle cx="68.9079" cy="47.7237" r="18.4079" fill="url(#paint0_linear_4_399)" stroke="url(#paint1_linear_4_399)" stroke-width="2"/>
<mask id="mask0_4_399" style="mask-type:alpha" maskUnits="userSpaceOnUse" x="49" y="39" width="40" height="29">
<path d="M88.3158 47.7236C88.3158 58.4423 79.6266 67.1315 68.9079 67.1315C58.1892 67.1315 49.5 58.4423 49.5 47.7236C49.5 37.005 56.7089 39.5 67.4276 39.5C78.1463 39.5 88.3158 37.005 88.3158 47.7236Z" fill="url(#paint2_linear_4_399)"/>
</mask>
<g mask="url(#mask0_4_399)">
<g filter="url(#filter1_f_4_399)">
<path fill-rule="evenodd" clip-rule="evenodd" d="M84.204 97.3938C84.2587 97.3945 84.3135 97.3948 84.3684 97.3948C92.1803 97.3948 98.5131 91.062 98.5131 83.25C98.5131 75.4381 92.1803 69.1053 84.3684 69.1053C84.3135 69.1053 84.2587 69.1056 84.204 69.1062V69.1053H75.1867C75.3841 67.9286 75.4869 66.7197 75.4869 65.4869C75.4869 53.4965 65.7667 43.7764 53.7763 43.7764C41.7859 43.7764 32.0658 53.4965 32.0658 65.4869C32.0658 66.7677 32.1767 68.0227 32.3895 69.2426C25.5144 70.2051 20.2236 76.1097 20.2236 83.25C20.2236 91.062 26.5564 97.3948 34.3684 97.3948C34.4235 97.3948 34.4786 97.3945 34.5336 97.3938L34.5329 97.3948H84.204V97.3938Z" fill="#E18700"/>
</g>
</g>
<g filter="url(#filter2_bd_4_399)">
<mask id="path-5-inside-1_4_399" fill="white">
<path fill-rule="evenodd" clip-rule="evenodd" d="M75.9803 99.0386C76.0351 99.0392 76.0899 99.0395 76.1448 99.0395C83.9567 99.0395 90.2896 92.7067 90.2896 84.8948C90.2896 77.0828 83.9567 70.75 76.1448 70.75C76.0899 70.75 76.0351 70.7503 75.9803 70.751V70.75H72.3261C72.4581 69.782 72.5263 68.7937 72.5263 67.7894C72.5263 55.799 62.8062 46.0789 50.8158 46.0789C38.8254 46.0789 29.1052 55.799 29.1052 67.7894C29.1052 68.9208 29.1918 70.032 29.3586 71.1167C28.3261 70.8769 27.2502 70.75 26.1447 70.75C18.3328 70.75 12 77.0828 12 84.8948C12 92.7067 18.3328 99.0395 26.1447 99.0395C26.1999 99.0395 26.255 99.0392 26.31 99.0386L26.3093 99.0395H75.9803V99.0386Z"/>
</mask>
<path fill-rule="evenodd" clip-rule="evenodd" d="M75.9803 99.0386C76.0351 99.0392 76.0899 99.0395 76.1448 99.0395C83.9567 99.0395 90.2896 92.7067 90.2896 84.8948C90.2896 77.0828 83.9567 70.75 76.1448 70.75C76.0899 70.75 76.0351 70.7503 75.9803 70.751V70.75H72.3261C72.4581 69.782 72.5263 68.7937 72.5263 67.7894C72.5263 55.799 62.8062 46.0789 50.8158 46.0789C38.8254 46.0789 29.1052 55.799 29.1052 67.7894C29.1052 68.9208 29.1918 70.032 29.3586 71.1167C28.3261 70.8769 27.2502 70.75 26.1447 70.75C18.3328 70.75 12 77.0828 12 84.8948C12 92.7067 18.3328 99.0395 26.1447 99.0395C26.1999 99.0395 26.255 99.0392 26.31 99.0386L26.3093 99.0395H75.9803V99.0386Z" fill="url(#paint3_linear_4_399)" shape-rendering="crispEdges"/>
<path d="M75.9803 99.0386L76.0032 97.0387C75.4688 97.0326 74.9542 97.2406 74.5742 97.6163C74.1942 97.992 73.9803 98.5042 73.9803 99.0386H75.9803ZM75.9803 70.751H73.9803C73.9803 71.2853 74.1942 71.7975 74.5742 72.1732C74.9542 72.5489 75.4688 72.7569 76.0031 72.7508L75.9803 70.751ZM75.9803 70.75H77.9803C77.9803 69.6455 77.0849 68.75 75.9803 68.75V70.75ZM72.3261 70.75L70.3445 70.4798C70.2664 71.0521 70.4396 71.6301 70.8194 72.0652C71.1992 72.5004 71.7486 72.75 72.3261 72.75V70.75ZM29.3586 71.1167L28.906 73.0649C29.5525 73.2151 30.2315 73.0347 30.7183 72.5834C31.2051 72.1322 31.4363 71.4688 31.3354 70.8127L29.3586 71.1167ZM26.31 99.0386L27.8807 100.277C28.3576 99.6717 28.4446 98.8466 28.1045 98.1555C27.7643 97.4643 27.0574 97.0299 26.2871 97.0387L26.31 99.0386ZM26.3093 99.0395L24.7386 97.8014C24.2643 98.4031 24.1754 99.2229 24.5098 99.9123C24.8442 100.602 25.543 101.04 26.3093 101.04V99.0395ZM75.9803 99.0395V101.04C77.0849 101.04 77.9803 100.144 77.9803 99.0395H75.9803ZM75.9575 101.038C76.0199 101.039 76.0823 101.04 76.1448 101.04V97.0395C76.0975 97.0395 76.0503 97.0392 76.0032 97.0387L75.9575 101.038ZM76.1448 101.04C85.0613 101.04 92.2896 93.8113 92.2896 84.8948H88.2896C88.2896 91.6021 82.8522 97.0395 76.1448 97.0395V101.04ZM92.2896 84.8948C92.2896 75.9783 85.0613 68.75 76.1448 68.75V72.75C82.8522 72.75 88.2896 78.1874 88.2896 84.8948H92.2896ZM76.1448 68.75C76.0823 68.75 76.0199 68.7504 75.9575 68.7511L76.0031 72.7508C76.0503 72.7503 76.0975 72.75 76.1448 72.75V68.75ZM73.9803 70.75V70.751H77.9803V70.75H73.9803ZM72.3261 72.75H75.9803V68.75H72.3261V72.75ZM74.3078 71.0202C74.4519 69.9629 74.5263 68.8843 74.5263 67.7894H70.5263C70.5263 68.7031 70.4643 69.6011 70.3445 70.4798L74.3078 71.0202ZM74.5263 67.7894C74.5263 54.6945 63.9107 44.0789 50.8158 44.0789V48.0789C61.7016 48.0789 70.5263 56.9036 70.5263 67.7894H74.5263ZM50.8158 44.0789C37.7208 44.0789 27.1052 54.6945 27.1052 67.7894H31.1052C31.1052 56.9036 39.9299 48.0789 50.8158 48.0789V44.0789ZM27.1052 67.7894C27.1052 69.023 27.1996 70.2358 27.3818 71.4208L31.3354 70.8127C31.1839 69.8283 31.1052 68.8187 31.1052 67.7894H27.1052ZM29.8112 69.1686C28.6314 68.8945 27.4037 68.75 26.1447 68.75V72.75C27.0968 72.75 28.0208 72.8592 28.906 73.0649L29.8112 69.1686ZM26.1447 68.75C17.2282 68.75 10 75.9783 10 84.8948H14C14 78.1874 19.4374 72.75 26.1447 72.75V68.75ZM10 84.8948C10 93.8113 17.2282 101.04 26.1447 101.04V97.0395C19.4374 97.0395 14 91.6021 14 84.8948H10ZM26.1447 101.04C26.2076 101.04 26.2703 101.039 26.3329 101.038L26.2871 97.0387C26.2397 97.0392 26.1923 97.0395 26.1447 97.0395V101.04ZM27.8799 100.278L27.8807 100.277L24.7394 97.8004L24.7386 97.8014L27.8799 100.278ZM75.9803 97.0395H26.3093V101.04H75.9803V97.0395ZM73.9803 99.0386V99.0395H77.9803V99.0386H73.9803Z" fill="url(#paint4_linear_4_399)" mask="url(#path-5-inside-1_4_399)"/>
</g>
<g filter="url(#filter3_bd_4_399)">
<mask id="path-7-inside-2_4_399" fill="white">
<path fill-rule="evenodd" clip-rule="evenodd" d="M101.659 84.3523C101.698 84.3527 101.738 84.3529 101.778 84.3529C107.423 84.3529 112 79.7763 112 74.1307C112 68.4851 107.423 63.9084 101.778 63.9084C101.738 63.9084 101.698 63.9087 101.659 63.9091V63.9084H99.0181C99.1135 63.2089 99.1628 62.4946 99.1628 61.7689C99.1628 53.1035 92.1381 46.0789 83.4728 46.0789C74.8075 46.0789 67.7829 53.1035 67.7829 61.7689C67.7829 62.5865 67.8454 63.3896 67.966 64.1735C67.2198 64.0001 66.4422 63.9084 65.6433 63.9084C59.9977 63.9084 55.421 68.4851 55.421 74.1307C55.421 79.7763 59.9977 84.3529 65.6433 84.3529C65.6831 84.3529 65.723 84.3527 65.7627 84.3523L65.7622 84.3529H101.659V84.3523Z"/>
</mask>
<path fill-rule="evenodd" clip-rule="evenodd" d="M101.659 84.3523C101.698 84.3527 101.738 84.3529 101.778 84.3529C107.423 84.3529 112 79.7763 112 74.1307C112 68.4851 107.423 63.9084 101.778 63.9084C101.738 63.9084 101.698 63.9087 101.659 63.9091V63.9084H99.0181C99.1135 63.2089 99.1628 62.4946 99.1628 61.7689C99.1628 53.1035 92.1381 46.0789 83.4728 46.0789C74.8075 46.0789 67.7829 53.1035 67.7829 61.7689C67.7829 62.5865 67.8454 63.3896 67.966 64.1735C67.2198 64.0001 66.4422 63.9084 65.6433 63.9084C59.9977 63.9084 55.421 68.4851 55.421 74.1307C55.421 79.7763 59.9977 84.3529 65.6433 84.3529C65.6831 84.3529 65.723 84.3527 65.7627 84.3523L65.7622 84.3529H101.659V84.3523Z" fill="url(#paint5_linear_4_399)" shape-rendering="crispEdges"/>
<path d="M101.659 84.3523L101.682 82.3524C101.147 82.3463 100.633 82.5543 100.253 82.93C99.8728 83.3057 99.6589 83.8179 99.6589 84.3523H101.659ZM101.659 63.9091H99.6589C99.6589 64.4435 99.8728 64.9556 100.253 65.3314C100.633 65.7071 101.147 65.9151 101.682 65.909L101.659 63.9091ZM101.659 63.9084H103.659C103.659 62.8039 102.763 61.9084 101.659 61.9084V63.9084ZM99.0181 63.9084L97.0365 63.6382C96.9584 64.2105 97.1316 64.7885 97.5114 65.2237C97.8912 65.6588 98.4406 65.9084 99.0181 65.9084V63.9084ZM67.966 64.1735L67.5133 66.1216C68.1599 66.2718 68.8389 66.0915 69.3257 65.6402C69.8124 65.1889 70.0436 64.5255 69.9427 63.8694L67.966 64.1735ZM65.7627 84.3523L67.3328 85.5912C67.8101 84.9863 67.8975 84.161 67.5574 83.4696C67.2174 82.7782 66.5104 82.3436 65.7399 82.3524L65.7627 84.3523ZM65.7622 84.3529L64.1921 83.114C63.7174 83.7156 63.6282 84.5357 63.9625 85.2253C64.2968 85.915 64.9958 86.3529 65.7622 86.3529V84.3529ZM101.659 84.3529V86.3529C102.763 86.3529 103.659 85.4575 103.659 84.3529H101.659ZM101.636 86.3521C101.683 86.3527 101.731 86.3529 101.778 86.3529V82.3529C101.746 82.3529 101.714 82.3528 101.682 82.3524L101.636 86.3521ZM101.778 86.3529C108.528 86.3529 114 80.8808 114 74.1307H110C110 78.6717 106.319 82.3529 101.778 82.3529V86.3529ZM114 74.1307C114 67.3805 108.528 61.9084 101.778 61.9084V65.9084C106.319 65.9084 110 69.5897 110 74.1307H114ZM101.778 61.9084C101.73 61.9084 101.683 61.9087 101.636 61.9092L101.682 65.909C101.714 65.9086 101.746 65.9084 101.778 65.9084V61.9084ZM99.6589 63.9084V63.9091H103.659V63.9084H99.6589ZM99.0181 65.9084H101.659V61.9084H99.0181V65.9084ZM101 64.1786C101.107 63.3898 101.163 62.5853 101.163 61.7689H97.1628C97.1628 62.404 97.1197 63.028 97.0365 63.6382L101 64.1786ZM101.163 61.7689C101.163 51.999 93.2427 44.0789 83.4728 44.0789V48.0789C91.0336 48.0789 97.1628 54.2081 97.1628 61.7689H101.163ZM83.4728 44.0789C73.7029 44.0789 65.7829 51.999 65.7829 61.7689H69.7829C69.7829 54.2081 75.9121 48.0789 83.4728 48.0789V44.0789ZM65.7829 61.7689C65.7829 62.6887 65.8532 63.5933 65.9892 64.4775L69.9427 63.8694C69.8376 63.1858 69.7829 62.4844 69.7829 61.7689H65.7829ZM68.4186 62.2254C67.525 62.0178 66.5957 61.9084 65.6433 61.9084V65.9084C66.2888 65.9084 66.9145 65.9824 67.5133 66.1216L68.4186 62.2254ZM65.6433 61.9084C58.8931 61.9084 53.421 67.3805 53.421 74.1307H57.421C57.421 69.5897 61.1022 65.9084 65.6433 65.9084V61.9084ZM53.421 74.1307C53.421 80.8808 58.8931 86.3529 65.6433 86.3529V82.3529C61.1022 82.3529 57.421 78.6717 57.421 74.1307H53.421ZM65.6433 86.3529C65.6908 86.3529 65.7382 86.3527 65.7856 86.3521L65.7399 82.3524C65.7077 82.3528 65.6755 82.3529 65.6433 82.3529V86.3529ZM67.3322 85.5919L67.3328 85.5912L64.1927 83.1133L64.1921 83.114L67.3322 85.5919ZM101.659 82.3529H65.7622V86.3529H101.659V82.3529ZM99.6589 84.3523V84.3529H103.659V84.3523H99.6589Z" fill="url(#paint6_linear_4_399)" mask="url(#path-7-inside-2_4_399)"/>
</g>
<defs>
<filter id="filter0_f_4_399" x="4.84213" y="-17" width="128.132" height="128.132" filterUnits="userSpaceOnUse" color-interpolation-filters="sRGB">
<feFlood flood-opacity="0" result="BackgroundImageFix"/>
<feBlend mode="normal" in="SourceGraphic" in2="BackgroundImageFix" result="shape"/>
<feGaussianBlur stdDeviation="22" result="effect1_foregroundBlur_4_399"/>
</filter>
<filter id="filter1_f_4_399" x="6.22363" y="29.7764" width="106.289" height="81.6184" filterUnits="userSpaceOnUse" color-interpolation-filters="sRGB">
<feFlood flood-opacity="0" result="BackgroundImageFix"/>
<feBlend mode="normal" in="SourceGraphic" in2="BackgroundImageFix" result="shape"/>
<feGaussianBlur stdDeviation="7" result="effect1_foregroundBlur_4_399"/>
</filter>
<filter id="filter2_bd_4_399" x="-59" y="11.0789" width="178.29" height="152.961" filterUnits="userSpaceOnUse" color-interpolation-filters="sRGB">
<feFlood flood-opacity="0" result="BackgroundImageFix"/>
<feGaussianBlur in="BackgroundImageFix" stdDeviation="7"/>
<feComposite in2="SourceAlpha" operator="in" result="effect1_backgroundBlur_4_399"/>
<feColorMatrix in="SourceAlpha" type="matrix" values="0 0 0 0 0 0 0 0 0 0 0 0 0 0 0 0 0 0 127 0" result="hardAlpha"/>
<feOffset dx="-21" dy="15"/>
<feGaussianBlur stdDeviation="25"/>
<feComposite in2="hardAlpha" operator="out"/>
<feColorMatrix type="matrix" values="0 0 0 0 0.113725 0 0 0 0 0.14902 0 0 0 0 0.27451 0 0 0 0.25 0"/>
<feBlend mode="normal" in2="effect1_backgroundBlur_4_399" result="effect2_dropShadow_4_399"/>
<feBlend mode="normal" in="SourceGraphic" in2="effect2_dropShadow_4_399" result="shape"/>
</filter>
<filter id="filter3_bd_4_399" x="-15.579" y="11.0789" width="156.579" height="138.274" filterUnits="userSpaceOnUse" color-interpolation-filters="sRGB">
<feFlood flood-opacity="0" result="BackgroundImageFix"/>
<feGaussianBlur in="BackgroundImageFix" stdDeviation="7"/>
<feComposite in2="SourceAlpha" operator="in" result="effect1_backgroundBlur_4_399"/>
<feColorMatrix in="SourceAlpha" type="matrix" values="0 0 0 0 0 0 0 0 0 0 0 0 0 0 0 0 0 0 127 0" result="hardAlpha"/>
<feOffset dx="-21" dy="15"/>
<feGaussianBlur stdDeviation="25"/>
<feComposite in2="hardAlpha" operator="out"/>
<feColorMatrix type="matrix" values="0 0 0 0 0.113438 0 0 0 0 0.148981 0 0 0 0 0.275 0 0 0 0.25 0"/>
<feBlend mode="normal" in2="effect1_backgroundBlur_4_399" result="effect2_dropShadow_4_399"/>
<feBlend mode="normal" in="SourceGraphic" in2="effect2_dropShadow_4_399" result="shape"/>
</filter>
<linearGradient id="paint0_linear_4_399" x1="68.9079" y1="28.3158" x2="68.9079" y2="67.1316" gradientUnits="userSpaceOnUse">
<stop stop-color="#FFE600"/>
<stop offset="1" stop-color="#FF7A00"/>
</linearGradient>
<linearGradient id="paint1_linear_4_399" x1="68.9079" y1="28.3158" x2="68.9079" y2="67.1316" gradientUnits="userSpaceOnUse">
<stop stop-color="white"/>
<stop offset="1" stop-color="white" stop-opacity="0"/>
</linearGradient>
<linearGradient id="paint2_linear_4_399" x1="68.9079" y1="28.3157" x2="68.9079" y2="67.1315" gradientUnits="userSpaceOnUse">
<stop stop-color="#FFD600"/>
<stop offset="1" stop-color="#FF7A00"/>
</linearGradient>
<linearGradient id="paint3_linear_4_399" x1="51.1448" y1="29.1381" x2="51.1448" y2="106.441" gradientUnits="userSpaceOnUse">
<stop stop-color="white"/>
<stop offset="1" stop-color="white" stop-opacity="0"/>
</linearGradient>
<linearGradient id="paint4_linear_4_399" x1="51.1447" y1="46.0789" x2="51.1447" y2="99.0395" gradientUnits="userSpaceOnUse">
<stop stop-color="white"/>
<stop offset="1" stop-color="white" stop-opacity="0"/>
</linearGradient>
<linearGradient id="paint5_linear_4_399" x1="86.3421" y1="47.2302" x2="86.3421" y2="88.6776" gradientUnits="userSpaceOnUse">
<stop stop-color="white"/>
<stop offset="1" stop-color="white" stop-opacity="0"/>
</linearGradient>
<linearGradient id="paint6_linear_4_399" x1="83.7105" y1="46.0789" x2="83.7105" y2="84.3529" gradientUnits="userSpaceOnUse">
<stop stop-color="white"/>
<stop offset="1" stop-color="white" stop-opacity="0"/>
</linearGradient>
</defs>
</svg>
