<svg width="65" height="65" viewBox="0 0 65 65" fill="none" xmlns="http://www.w3.org/2000/svg">
<path fill-rule="evenodd" clip-rule="evenodd" d="M30.5025 10.4354V4.37402H34.5435V10.4354H30.5025ZM41.8859 12.4029L44.9166 7.15364L48.4161 9.17409L45.3854 14.4234L41.8859 12.4029ZM32.523 46.8037C40.3341 46.8037 46.6662 40.4715 46.6662 32.6605C46.6662 24.8494 40.3341 18.5172 32.523 18.5172C24.7119 18.5172 18.3798 24.8494 18.3798 32.6605C18.3798 40.4715 24.7119 46.8037 32.523 46.8037ZM32.523 50.8446C42.5658 50.8446 50.7071 42.7033 50.7071 32.6605C50.7071 22.6176 42.5658 14.4763 32.523 14.4763C22.4802 14.4763 14.3389 22.6176 14.3389 32.6605C14.3389 42.7033 22.4802 50.8446 32.523 50.8446ZM54.7481 30.64H60.8094V34.6809H54.7481V30.64ZM56.0095 16.7675L50.7602 19.7982L52.7806 23.2977L58.03 20.267L56.0095 16.7675ZM16.63 9.17409L19.6607 14.4234L23.1602 12.4029L20.1296 7.15364L16.63 9.17409ZM12.2654 23.2977L7.01606 20.267L9.03652 16.7675L14.2858 19.7982L12.2654 23.2977ZM30.5025 54.8855V60.9469H34.5435V54.8855H30.5025ZM10.298 30.64H4.23657V34.6809H10.298V30.64ZM7.01595 45.0539L12.2653 42.0232L14.2857 45.5228L9.03641 48.5534L7.01595 45.0539ZM19.6608 50.8979L16.6301 56.1472L20.1297 58.1676L23.1604 52.9183L19.6608 50.8979ZM44.9165 58.1676L41.8858 52.9183L45.3853 50.8979L48.416 56.1472L44.9165 58.1676ZM50.7603 45.5228L56.0096 48.5534L58.0301 45.0539L52.7808 42.0232L50.7603 45.5228Z" fill="url(#paint0_linear_202_1154)"/>
<defs>
<linearGradient id="paint0_linear_202_1154" x1="32.523" y1="4.37402" x2="32.523" y2="60.9469" gradientUnits="userSpaceOnUse">
<stop stop-color="#EFC977"/>
<stop offset="1" stop-color="#E07256"/>
</linearGradient>
</defs>
</svg>
