<svg width="58" height="57" viewBox="0 0 58 57" fill="none" xmlns="http://www.w3.org/2000/svg">
<path fill-rule="evenodd" clip-rule="evenodd" d="M26.7241 0.199219V6.2606H30.765V0.199219H26.7241ZM38.0637 39.1247C41.0207 36.5325 42.8878 32.7271 42.8878 28.4857C42.8878 20.6746 36.5556 14.3424 28.7446 14.3424C20.9335 14.3424 14.6013 20.6746 14.6013 28.4857C14.6013 28.7722 14.6099 29.0567 14.6267 29.339C13.2432 29.8252 11.9515 30.5065 10.7847 31.3499C10.6371 30.4169 10.5604 29.4602 10.5604 28.4857C10.5604 18.4428 18.7017 10.3015 28.7446 10.3015C38.7874 10.3015 46.9287 18.4428 46.9287 28.4857C46.9287 33.4732 44.9207 37.9918 41.669 41.2771C40.6423 40.3261 39.4176 39.5857 38.0637 39.1247ZM50.9696 26.4652H57.031V30.5061H50.9696V26.4652ZM52.2311 12.5927L46.9817 15.6234L49.0022 19.1229L54.2515 16.0922L52.2311 12.5927ZM38.1074 8.22814L41.1381 2.97883L44.6377 4.99929L41.607 10.2486L38.1074 8.22814ZM12.8516 4.99929L15.8823 10.2486L19.3818 8.22814L16.3511 2.97883L12.8516 4.99929ZM8.48693 19.1229L3.23762 16.0922L5.25808 12.5927L10.5074 15.6234L8.48693 19.1229ZM6.51951 26.4652H0.45813V30.5061H6.51951V26.4652ZM52.2312 44.3786L46.9819 41.348L49.0023 37.8484L54.2516 40.8791L52.2312 44.3786Z" fill="url(#paint0_linear_202_846)"/>
<path fill-rule="evenodd" clip-rule="evenodd" d="M19.6525 52.7304C19.7087 52.7304 19.7648 52.73 19.8208 52.7291H34.6709C34.6968 52.7297 34.7227 52.7301 34.7486 52.7303H34.8059V52.7306C34.8059 52.7306 34.8059 52.7306 34.8059 52.7306C38.1536 52.7306 40.8673 50.0168 40.8673 46.6692C40.8673 43.3216 38.1536 40.6078 34.8059 40.6078C33.2514 40.6078 31.8336 41.193 30.7607 42.1551C30.7692 41.9772 30.7734 41.7983 30.7734 41.6183C30.7734 40.2539 30.5276 38.947 30.0777 37.7394C31.4884 36.9909 33.0977 36.5669 34.8059 36.5669C40.3853 36.5669 44.9083 41.0899 44.9083 46.6692C44.9083 52.2486 40.3853 56.7715 34.8059 56.7715C34.7812 56.7715 34.7565 56.7714 34.7319 56.7712L19.7308 56.7713V56.7711C19.7047 56.7712 19.6786 56.7713 19.6525 56.7713C11.2835 56.7713 4.49902 49.9869 4.49902 41.6178C4.49902 33.2488 11.2835 26.4644 19.6525 26.4644C26.2636 26.4644 31.8859 30.698 33.9561 36.602C32.5613 36.7182 31.2469 37.1177 30.0708 37.743C28.4981 33.5163 24.4269 30.5053 19.6525 30.5053C13.5152 30.5053 8.53994 35.4805 8.53994 41.6178C8.53994 47.7551 13.5152 52.7304 19.6525 52.7304Z" fill="url(#paint1_linear_202_846)"/>
<defs>
<linearGradient id="paint0_linear_202_846" x1="28.7446" y1="0.199219" x2="28.7446" y2="44.3786" gradientUnits="userSpaceOnUse">
<stop stop-color="#EFC977"/>
<stop offset="1" stop-color="#E07256"/>
</linearGradient>
<linearGradient id="paint1_linear_202_846" x1="24.7036" y1="26.4644" x2="24.7036" y2="56.7715" gradientUnits="userSpaceOnUse">
<stop stop-color="#B2D4F7"/>
<stop offset="1" stop-color="#D9E2F3"/>
</linearGradient>
</defs>
</svg>
