<svg width="66" height="65" viewBox="0 0 66 65" fill="none" xmlns="http://www.w3.org/2000/svg">
<path fill-rule="evenodd" clip-rule="evenodd" d="M23.7905 16.435C24.5057 16.3603 25.2314 16.322 25.9656 16.322C35.7864 16.322 44.0645 23.1709 46.6 32.5137C46.803 32.5005 47.0071 32.4919 47.2124 32.4881C47.129 32.4866 47.0454 32.4859 46.9616 32.4859L46.8938 32.486L46.8937 32.4857H49.9923H50.1139V32.4846C53.9633 32.4197 57.0639 29.2789 57.0639 25.414C57.0639 21.5085 53.8978 18.3424 49.9923 18.3424C48.6809 18.3424 47.453 18.6994 46.4002 19.3214C46.3971 18.1925 46.2257 17.1031 45.9097 16.0772C44.3353 11.5162 40.0046 8.24014 34.9086 8.24014C29.6803 8.24014 25.2575 11.6886 23.7905 16.435ZM55.4004 35.1241C58.8543 37.6901 61.1049 41.8869 61.1049 46.6288C61.1049 54.4399 54.9982 60.772 47.4653 60.772C47.2967 60.772 47.1288 60.7688 46.9616 60.7626V60.7721H26.2865V60.7696C26.1797 60.7713 26.0728 60.7721 25.9656 60.7721C14.1281 60.7721 4.53198 50.8216 4.53198 38.547C4.53198 28.6353 10.7892 20.239 19.4311 17.3738C20.6288 9.90512 27.1024 4.19922 34.9086 4.19922C41.6061 4.19922 47.3227 8.39943 49.5678 14.3095C49.7086 14.3042 49.8501 14.3015 49.9923 14.3015C56.1295 14.3015 61.1048 19.2768 61.1048 25.414C61.1048 29.5881 58.8034 33.2247 55.4004 35.1241ZM46.9616 56.7312H26.2865H26.054V56.7309L25.9656 56.7312C16.4967 56.7312 8.5729 48.7292 8.5729 38.547C8.5729 28.3649 16.4967 20.3629 25.9656 20.3629C33.9981 20.3629 40.9187 26.1213 42.8335 34.0841L42.8396 34.0816C43.1101 35.1865 43.2825 36.3319 43.3467 37.5075C44.6056 36.8765 46.0063 36.5266 47.4653 36.5266C52.6296 36.5266 57.0639 40.9102 57.0639 46.6288C57.0639 52.3075 52.6915 56.6696 47.5737 56.7305V56.7312H46.9616Z" fill="white"/>
</svg>
