<svg width="65" height="65" viewBox="0 0 65 65" fill="none" xmlns="http://www.w3.org/2000/svg">
<path fill-rule="evenodd" clip-rule="evenodd" d="M4.16284 26.4243C4.16284 35.239 9.11172 42.8553 16.2856 46.4484V41.7803C11.4571 38.5778 8.20376 32.9486 8.20376 26.4243C8.20376 16.2421 16.1276 8.24014 25.5965 8.24014C33.629 8.24014 40.5496 13.9985 42.4644 21.9614L42.4705 21.9589C42.7409 23.0637 42.9133 24.2092 42.9776 25.3847C44.2365 24.7537 45.6372 24.4038 47.0962 24.4038C52.2605 24.4038 56.6948 28.7874 56.6948 34.5061C56.6948 37.9621 55.0753 40.9305 52.6539 42.7384V47.4258C57.4166 45.2195 60.7357 40.2647 60.7357 34.5061C60.7357 26.695 54.6291 20.3629 47.0962 20.3629C46.8055 20.3629 46.517 20.3723 46.2309 20.3909C43.6953 11.0481 35.4172 4.19922 25.5965 4.19922C13.759 4.19922 4.16284 14.1497 4.16284 26.4243ZM37.9428 40.9769C38.3665 41.2215 39.0302 41.1147 39.3695 40.5267C39.5554 40.2047 39.7943 39.5359 39.9673 38.4471C40.0363 38.013 40.0883 37.5552 40.126 37.0851C38.9459 37.92 38.0518 38.7662 37.6192 39.5158C37.2798 40.1038 37.5192 40.7322 37.9428 40.9769ZM40.1157 32.3275C42.2217 31.1476 44.0048 30.4736 44.0048 30.4736C44.0048 30.4736 44.238 32.3709 44.2471 34.7615C44.2571 37.3803 43.9981 40.591 42.8688 42.5477C41.4486 45.0084 38.3388 45.872 35.9229 44.4767C33.507 43.0814 32.6998 39.9555 34.1199 37.4948C35.3592 35.3475 37.914 33.561 40.1157 32.3275ZM24.6021 43.0331C25.0257 43.2778 25.6894 43.1709 26.0288 42.5829C26.2146 42.2609 26.4535 41.5921 26.6265 40.5033C26.6955 40.0692 26.7475 39.6114 26.7852 39.1413C25.6051 39.9762 24.711 40.8224 24.2784 41.572C23.939 42.16 24.1784 42.7884 24.6021 43.0331ZM26.7749 34.3837C28.8809 33.2038 30.664 32.5298 30.664 32.5298C30.664 32.5298 30.8972 34.4271 30.9063 36.8177C30.9163 39.4365 30.6573 42.6472 29.528 44.6039C28.1078 47.0646 24.9981 47.9282 22.5821 46.5329C20.1662 45.1376 19.359 42.0117 20.7791 39.551C22.0184 37.4037 24.5732 35.6173 26.7749 34.3837ZM43.9241 52.9183C43.5847 53.5063 42.9211 53.6131 42.4974 53.3684C42.0737 53.1237 41.8343 52.4953 42.1737 51.9073C42.6063 51.1577 43.5004 50.3115 44.6805 49.4766C44.6429 49.9467 44.5908 50.4045 44.5219 50.8386C44.3488 51.9275 44.1099 52.5963 43.9241 52.9183ZM48.5593 42.8651C48.5593 42.8651 46.7762 43.5391 44.6702 44.719C42.4685 45.9526 39.9138 47.7391 38.6745 49.8863C37.2543 52.347 38.0615 55.4729 40.4775 56.8682C42.8934 58.2636 46.0032 57.3999 47.4233 54.9393C48.5526 52.9826 48.8116 49.7719 48.8017 47.1531C48.7925 44.7625 48.5593 42.8651 48.5593 42.8651ZM28.9233 56.6049C29.347 56.8496 30.0106 56.7428 30.35 56.1548C30.5358 55.8328 30.7747 55.164 30.9478 54.0752C31.0167 53.6411 31.0688 53.1833 31.1064 52.7132C29.9263 53.5481 29.0322 54.3943 28.5996 55.1439C28.2602 55.7319 28.4996 56.3602 28.9233 56.6049ZM31.0961 47.9556C33.2021 46.7757 34.9852 46.1017 34.9852 46.1017C34.9852 46.1017 35.2184 47.999 35.2276 50.3896C35.2375 53.0084 34.9785 56.2191 33.8492 58.1758C32.4291 60.6365 29.3193 61.5001 26.9034 60.1048C24.4874 58.7095 23.6802 55.5836 25.1004 53.1229C26.3397 50.9756 28.8944 49.1891 31.0961 47.9556Z" fill="url(#paint0_linear_202_1025)"/>
<defs>
<linearGradient id="paint0_linear_202_1025" x1="32.4493" y1="4.19922" x2="32.4493" y2="60.7722" gradientUnits="userSpaceOnUse">
<stop stop-color="#95B6F6"/>
<stop offset="1" stop-color="#5193DE"/>
</linearGradient>
</defs>
</svg>
