<svg width="65" height="65" viewBox="0 0 65 65" fill="none" xmlns="http://www.w3.org/2000/svg">
<path fill-rule="evenodd" clip-rule="evenodd" d="M54.7401 24.6795C55.9258 22.9778 56.6211 20.9089 56.6211 18.6775C56.6211 12.8727 51.9154 8.1669 46.1105 8.1669C43.4564 8.1669 41.032 9.15069 39.1821 10.7735C38.1195 9.89471 36.9654 9.12255 35.7363 8.47342C38.3761 5.78997 42.049 4.12598 46.1105 4.12598C54.1471 4.12598 60.6621 10.6409 60.6621 18.6775C60.6621 22.2898 59.3459 25.5946 57.1669 28.1386C56.5326 26.8645 55.7117 25.6995 54.7401 24.6795Z" fill="url(#paint0_linear_202_1079)"/>
<path fill-rule="evenodd" clip-rule="evenodd" d="M48.5392 48.4893C55.3583 47.707 60.662 41.712 60.662 34.4326C60.662 26.6215 54.5554 20.2894 47.0225 20.2894C46.7318 20.2894 46.4433 20.2988 46.1572 20.3174C43.6217 10.9745 35.3436 4.12549 25.5227 4.12549C13.6853 4.12549 4.08911 14.076 4.08911 26.3505C4.08911 36.7395 10.9635 45.4636 20.2528 47.8988V43.6803C13.2875 41.3608 8.13003 34.5652 8.13003 26.3505C8.13003 16.1684 16.0539 8.16641 25.5227 8.16641C33.5552 8.16641 40.4759 13.9248 42.3907 21.8876L42.3969 21.8851C42.6674 22.99 42.8398 24.1355 42.904 25.3111C44.1629 24.6801 45.5635 24.3303 47.0225 24.3303C52.1868 24.3303 56.6211 28.7139 56.6211 34.4326C56.6211 39.582 53.0256 43.649 48.5392 44.4075V48.4893ZM27.3285 56.6619C27.8178 56.6619 28.3391 56.2375 28.3389 55.5586C28.3388 55.1868 28.2111 54.4882 27.8164 53.4588C27.659 53.0484 27.4751 52.6259 27.2726 52.2C26.6683 53.5132 26.3173 54.6931 26.3175 55.5586C26.3177 56.2375 26.8393 56.6619 27.3285 56.6619ZM24.8843 48.0853C26.1179 46.0103 27.3248 44.5349 27.3248 44.5349C27.3248 44.5349 28.4757 46.0612 29.6792 48.1268C30.9976 50.3896 32.3791 53.2994 32.3798 55.5586C32.3807 58.3997 30.1197 60.7029 27.3298 60.7029C24.5399 60.7029 22.2775 58.3997 22.2766 55.5586C22.2758 53.0794 23.5946 50.2547 24.8843 48.0853ZM40.4616 49.4972C40.4618 50.1761 39.9406 50.6006 39.4513 50.6006C38.962 50.6006 38.4405 50.1761 38.4403 49.4972C38.44 48.6317 38.791 47.4518 39.3954 46.1386C39.5979 46.5645 39.7818 46.987 39.9392 47.3974C40.3339 48.4268 40.4615 49.1254 40.4616 49.4972ZM39.4476 38.4735C39.4476 38.4735 38.2406 39.9489 37.0071 42.024C35.7174 44.1933 34.3986 47.018 34.3994 49.4972C34.4002 52.3383 36.6626 54.6415 39.4525 54.6415C42.2425 54.6415 44.5034 52.3383 44.5026 49.4972C44.5019 47.238 43.1204 44.3282 41.802 42.0654C40.5985 39.9999 39.4476 38.4735 39.4476 38.4735Z" fill="url(#paint1_linear_202_1079)"/>
<defs>
<linearGradient id="paint0_linear_202_1079" x1="48.1992" y1="4.12598" x2="48.1992" y2="28.1386" gradientUnits="userSpaceOnUse">
<stop stop-color="#EFC977"/>
<stop offset="1" stop-color="#E07256"/>
</linearGradient>
<linearGradient id="paint1_linear_202_1079" x1="32.3755" y1="4.12549" x2="32.3755" y2="60.7027" gradientUnits="userSpaceOnUse">
<stop stop-color="#95B6F6"/>
<stop offset="1" stop-color="#5193DE"/>
</linearGradient>
</defs>
</svg>
