<svg width="58" height="56" viewBox="0 0 58 56" fill="none" xmlns="http://www.w3.org/2000/svg">
<path fill-rule="evenodd" clip-rule="evenodd" d="M31.1782 29.312L34.5405 31.5535L28.5527 40.5351H38.8313L27.7624 55.8612L24.4865 53.4953L30.9282 44.576H21.0022L31.1782 29.312Z" fill="url(#paint0_linear_202_1190)"/>
<path fill-rule="evenodd" clip-rule="evenodd" d="M16.6957 43.8988C7.40634 41.4636 0.531982 32.7395 0.531982 22.3505C0.531982 10.076 10.1281 0.125488 21.9656 0.125488C31.7864 0.125488 40.0645 6.97437 42.6 16.3172C42.8862 16.2986 43.1747 16.2892 43.4653 16.2892C50.9982 16.2892 57.1049 22.6213 57.1049 30.4324C57.1049 38.2434 50.9982 44.5755 43.4653 44.5755C43.2967 44.5755 43.1288 44.5724 42.9616 44.5661V40.5347H43.5737V40.534C48.6915 40.4731 53.0639 36.111 53.0639 30.4324C53.0639 24.7137 48.6296 20.3301 43.4653 20.3301C42.0063 20.3301 40.6056 20.68 39.3467 21.311C39.2825 20.1355 39.1101 18.99 38.8396 17.8852L38.8335 17.8876C36.9187 9.9248 29.9981 4.16641 21.9656 4.16641C12.4967 4.16641 4.5729 12.1684 4.5729 22.3505C4.5729 30.5652 9.73034 37.3608 16.6957 39.6803V43.8988Z" fill="url(#paint1_linear_202_1190)"/>
<defs>
<linearGradient id="paint0_linear_202_1190" x1="29.9167" y1="29.312" x2="29.9167" y2="55.8612" gradientUnits="userSpaceOnUse">
<stop stop-color="#F5BD52"/>
<stop offset="1" stop-color="#F5DA79"/>
</linearGradient>
<linearGradient id="paint1_linear_202_1190" x1="28.8184" y1="0.125488" x2="28.8184" y2="44.5755" gradientUnits="userSpaceOnUse">
<stop stop-color="#95B6F6"/>
<stop offset="1" stop-color="#5193DE"/>
</linearGradient>
</defs>
</svg>
