<svg width="65" height="65" viewBox="0 0 65 65" fill="none" xmlns="http://www.w3.org/2000/svg">
<path fill-rule="evenodd" clip-rule="evenodd" d="M28.397 32.4144L18.0655 38.4572L9.87595 34.698L8.19482 38.3961L13.7837 40.9616L10.7095 42.7596L12.7103 46.2704L15.784 44.4727L15.1828 50.6577L19.1848 51.0319L20.0658 41.9683L30.4022 35.9227V48.0763L23.0883 53.3847L25.4619 56.655L30.4022 53.0694V56.6575H34.4431V53.0692L39.3837 56.655L41.7573 53.3847L34.4431 48.0761V35.9507L44.8026 42.0099L45.6837 51.0744L49.6857 50.7002L49.0844 44.5142L52.1587 46.3124L54.1595 42.8016L51.0857 41.0037L56.6736 38.4386L54.9925 34.7405L46.8039 38.4993L36.4003 32.4144L46.7718 26.3483L55.0145 30.132L56.6957 26.4338L51.0536 23.8439L54.1636 22.0249L52.1627 18.5141L49.1122 20.2984L49.7077 14.1723L45.7057 13.7981L44.8304 22.8027L34.4431 28.8781V16.7889L41.8042 11.4463L39.4306 8.17592L34.4431 11.7958V8.1665H30.4022V11.7275L25.5088 8.17592L23.1353 11.4463L30.4022 16.7205V28.9062L20.0975 22.8791L19.2107 13.7561L15.2088 14.1303L15.8158 20.3748L12.7063 18.5561L10.7055 22.0669L13.7559 23.851L8.22079 26.3918L9.90192 30.0899L18.0377 26.3554L28.397 32.4144Z" fill="url(#paint0_linear_202_1138)"/>
<defs>
<linearGradient id="paint0_linear_202_1138" x1="32.4452" y1="8.1665" x2="32.4452" y2="56.6575" gradientUnits="userSpaceOnUse">
<stop stop-color="#B2D4F7"/>
<stop offset="1" stop-color="#D9E2F3"/>
</linearGradient>
</defs>
</svg>
