<svg width="66" height="65" viewBox="0 0 66 65" fill="none" xmlns="http://www.w3.org/2000/svg">
<path fill-rule="evenodd" clip-rule="evenodd" d="M56.99 34.5772C56.99 39.1693 54.0031 43.0222 49.9185 44.3204V48.5018C56.2731 47.1036 61.0309 41.4003 61.0309 34.5772C61.0309 26.7057 54.6987 20.3246 46.8877 20.3246C46.487 20.3246 46.0901 20.3414 45.6979 20.3743C42.7994 12.045 34.9283 6.07227 25.6729 6.07227C13.9563 6.07227 4.45813 15.6439 4.45813 27.4512C4.45813 36.3747 9.88329 44.0212 17.5911 47.2241V42.7521C12.1887 39.8381 8.49905 34.092 8.49905 27.4512C8.49905 17.8463 16.2174 10.1132 25.6729 10.1132C32.9939 10.1132 39.2735 14.7489 41.7356 21.2998L41.7524 21.2932C42.2194 22.5575 42.5467 23.8915 42.7153 25.2756C43.9893 24.6907 45.4028 24.3655 46.8877 24.3655C52.4377 24.3655 56.99 28.908 56.99 34.5772ZM46.8878 36.3792H26.6832V40.4201H46.8878V36.3792ZM42.8469 44.461H22.6423V48.5019H42.8469V44.461ZM26.6832 52.5428H46.8878V56.5838H26.6832V52.5428Z" fill="url(#paint0_linear_202_1281)"/>
<defs>
<linearGradient id="paint0_linear_202_1281" x1="32.7445" y1="6.07227" x2="32.7445" y2="56.5838" gradientUnits="userSpaceOnUse">
<stop stop-color="#CED3EA"/>
<stop offset="1" stop-color="#7E83A9"/>
</linearGradient>
</defs>
</svg>
